# xmcd CD database file
#
# Track frame offsets:
#	150
#	32985
#	64863
#	87944
#	113520
#	148753
#	173234
#	203012
#	221280
#	256513
#
# Disc length: 3497 seconds
#
# Revision: 0
# Processed by: cddbd v1.5.2PL0 Copyright (c) Steve Scherf et al.
# Submitted via: CDex 1.70beta2
#
DISCID=840da70a
DTITLE=Michael H Cohen - Om Dattatheya
DYEAR=2009
DGENRE=New Age
TTITLE0=Hare Om Shivaya
TTITLE1=Om Namoh Bhagavate Vasudevaya
TTITLE2=Maheshwari Ma
TTITLE3=Guru Om
TTITLE4=Shiva Om
TTITLE5=Kali Durge
TTITLE6=Shree Ram
TTITLE7=Guru Guru Paramaguru
TTITLE8=Om Dattateya
TTITLE9=Lokha Samesta ( trad arr by Mike Cohen )
EXTD=YEAR: 2009
EXTT0=
EXTT1=
EXTT2=
EXTT3=
EXTT4=
EXTT5=
EXTT6=
EXTT7=
EXTT8=
EXTT9=
PLAYORDER=
